#!OML:ASF F:\VICON\USERDATA\INSTALL\rory3\rory3.ASF
:FULLY-SPECIFIED
:DEGREES
64
root -2.12556 16.4103 -26.441 -0.171901 8.76745 0.400716
lowerback 14.6533 -1.63665 -6.2047
upperback -4.20725 -3.15287 2.29633
thorax -12.4825 -0.881582 6.86726
lowerneck -7.41033 -6.30587 -4.77676
upperneck 17.7402 -8.8208 4.52367
head 7.05495 -4.19622 1.49113
rclavicle -4.62174e-015 2.34566e-014
rhumerus -37.4392 -5.17315 -81.5047
rradius 23.9457
rwrist 11.5865
rhand -12.0444 19.9616
rfingers 7.12502
rthumb 14.0142 -9.54593
lclavicle -4.62174e-015 2.34566e-014
lhumerus -36.9082 8.19115 83.4879
lradius 23.649
lwrist -0.754031
lhand -5.93577 17.7542
lfingers 7.12502
lthumb 19.8941 46.7559
rfemur -12.0948 15.9758 24.8752
rtibia 31.0074
rfoot -19.2572 -14.1934
rtoes 35.8066
lfemur -25.2875 -4.46749 -17.5653
ltibia 75.2639
lfoot 6.96234 2.32899
ltoes 9.68258
65
root -2.1286 16.4069 -26.392 0.188652 6.92756 0.543615
lowerback 14.5457 -0.942405 -6.37688
upperback -4.20813 -2.25492 2.21748
thorax -12.5643 -0.444679 6.65905
lowerneck -7.93801 -6.33626 -4.70183
upperneck 17.7848 -8.85091 4.50409
head 7.15977 -4.19664 1.45189
rclavicle -2.08724e-015 -1.59028e-014
rhumerus -36.9637 -5.14639 -81.5134
rradius 24.3604
rwrist 11.6673
rhand -12.1248 20.3161
rfingers 7.12502
rthumb 13.9368 -9.19685
lclavicle -2.08724e-015 -1.59028e-014
lhumerus -36.526 7.9627 83.6264
lradius 23.3098
lwrist -0.546189
lhand -6.34739 16.8785
lfingers 7.12502
lthumb 19.4984 45.9208
rfemur -12.6885 16.2793 24.5717
rtibia 31.2047
rfoot -18.4033 -13.1708
rtoes 34.6883
lfemur -26.3855 -2.62074 -17.9098
ltibia 75.5124
lfoot 5.15015 2.24325
ltoes 10.0205
66
root -2.13881 16.405 -26.3558 0.89462 3.89169 0.446602
lowerback 14.1794 0.15425 -6.56818
upperback -4.30779 -0.798038 2.18056
thorax -12.6979 0.263309 6.36453
lowerneck -8.81822 -6.32474 -4.53093
upperneck 18.1642 -8.83204 4.42363
head 7.42675 -4.16181 1.36726
rclavicle 1.59028e-014 -9.14409e-015
rhumerus -36.2596 -5.43556 -81.5277
rradius 24.3503
rwrist 11.8437
rhand -12.2839 20.4827
rfingers 7.12502
rthumb 13.7834 -9.04069
lclavicle 1.59028e-014 -9.14409e-015
lhumerus -36.3594 7.71232 83.7091
lradius 23.5019
lwrist -0.209573
lhand -6.24488 17.2344
lfingers 7.12502
lthumb 19.5969 46.2667
rfemur -13.9422 17.2411 24.3426
rtibia 31.4064
rfoot -16.9561 -11.8048
rtoes 33.1825
lfemur -27.7662 0.393653 -17.9194
ltibia 75.6635
lfoot 3.40859 2.06132
ltoes 8.25718
67
root -2.14252 16.4023 -26.2772 0.920414 4.18195 0.504913
lowerback 14.2814 0.148578 -6.38165
upperback -4.33846 -0.79268 2.04849
thorax -12.7964 0.249152 6.11067
lowerneck -9.01364 -6.34129 -4.49314
upperneck 18.382 -8.87425 4.4698
head 7.53532 -4.16872 1.36307
rclavicle 1.30328e-014 -4.37326e-015
rhumerus -35.8935 -5.72453 -81.5994
rradius 24.4437
rwrist 11.8179
rhand -11.8862 19.7205
rfingers 7.12502
rthumb 14.1667 -9.77651
lclavicle 1.30328e-014 -4.37326e-015
lhumerus -36.6874 7.44565 83.7505
lradius 23.9262
lwrist 0.146055
lhand -5.86701 18.2494
lfingers 7.12502
lthumb 19.9602 47.2443
rfemur -13.642 17.1614 24.4237
rtibia 31.5231
rfoot -17.4842 -11.8065
rtoes 33.3354
lfemur -28.7836 0.059084 -18.1981
ltibia 75.6114
lfoot 2.2139 2.02564
ltoes 6.83704
68
root -2.15733 16.4001 -26.1954 0.97807 4.18805 0.536143
lowerback 14.1576 0.175649 -6.50649
upperback -4.49398 -0.775743 2.05105
thorax -12.9056 0.276842 6.18173
lowerneck -8.25831 -6.3297 -4.63438
upperneck 18.1326 -8.86166 4.52861
head 7.32809 -4.18465 1.43364
rclavicle -4.37326e-015 -5.1684e-015
rhumerus -36.1068 -5.19068 -81.7982
rradius 24.9809
rwrist 11.3593
rhand -10.9835 18.4451
rfingers 7.12502
rthumb 15.0363 -10.9889
lclavicle -4.37326e-015 -5.1684e-015
lhumerus -37.3179 7.28052 83.8044
lradius 24.046
lwrist 0.399178
lhand -5.90783 18.3814
lfingers 7.12502
lthumb 19.921 47.3804
rfemur -13.3091 17.2935 24.5806
rtibia 31.4826
rfoot -17.8566 -12.0578
rtoes 32.9529
lfemur -29.6193 0.064699 -18.3507
ltibia 75.3331
lfoot 1.28523 1.94663
ltoes 8.64126
69
root -2.16654 16.3992 -26.1174 1.14802 3.09025 0.436495
lowerback 13.7181 0.54553 -6.58533
upperback -4.5512 -0.260158 2.08314
thorax -12.7899 0.523343 6.1267
lowerneck -7.63111 -6.34824 -4.75657
upperneck 17.7207 -8.87434 4.54872
head 7.09057 -4.21372 1.48371
rclavicle -5.42931e-015 -8.34896e-015
rhumerus -36.1784 -4.77637 -81.9449
rradius 25.4633
rwrist 11.0607
rhand -10.5538 18.3224
rfingers 7.12502
rthumb 15.4503 -11.0801
lclavicle -5.42931e-015 -8.34896e-015
lhumerus -37.6299 7.42105 83.7489
lradius 24.1058
lwrist 0.204902
lhand -5.68157 18.6012
lfingers 7.12502
lthumb 20.1384 47.5774
rfemur -13.2117 17.8268 24.7202
rtibia 31.2738
rfoot -17.6039 -11.9613
rtoes 31.3817
lfemur -30.3504 1.13686 -18.3653
ltibia 74.8324
lfoot 0.437799 1.87804
ltoes 11.6993
